<svg width="43" height="42" viewBox="0 0 43 42" fill="none" xmlns="http://www.w3.org/2000/svg">
<path d="M21.0853 3.41882C16.2409 3.41882 12.2998 7.25301 12.2998 11.9658V17.094H10.5427C9.61063 17.094 8.71677 17.4542 8.05773 18.0954C7.39869 18.7365 7.02844 19.6061 7.02844 20.5128V34.1881C7.02844 35.0948 7.39869 35.9644 8.05773 36.6055C8.71677 37.2467 9.61063 37.6069 10.5427 37.6069H31.6279C32.5599 37.6069 33.4538 37.2467 34.1128 36.6055C34.7719 35.9644 35.1421 35.0948 35.1421 34.1881V20.5128C35.1421 19.6061 34.7719 18.7365 34.1128 18.0954C33.4538 17.4542 32.5599 17.094 31.6279 17.094H29.8708V11.9658C29.8708 7.25301 25.9296 3.41882 21.0853 3.41882ZM15.814 11.9658C15.814 9.13848 18.179 6.83763 21.0853 6.83763C23.9915 6.83763 26.3566 9.13848 26.3566 11.9658V17.094H15.814V11.9658ZM22.8424 30.2957V34.1881H19.3282V30.2957C18.7139 29.9535 18.2206 29.4382 17.9134 28.8177C17.6062 28.1973 17.4995 27.5008 17.6074 26.8201C17.7153 26.1395 18.0327 25.5067 18.5177 25.005C19.0028 24.5034 19.6327 24.1566 20.3245 24.0103C20.8383 23.8998 21.371 23.9028 21.8834 24.0193C22.3959 24.1358 22.8749 24.3627 23.2852 24.6832C23.6954 25.0038 24.0265 25.4098 24.254 25.8715C24.4815 26.3331 24.5995 26.8385 24.5995 27.3504C24.5985 27.9483 24.4355 28.5353 24.1271 29.0524C23.8186 29.5695 23.3755 29.9983 22.8424 30.2957Z" fill="black"/>
</svg>
