<svg width="43" height="42" viewBox="0 0 43 42" fill="none" xmlns="http://www.w3.org/2000/svg">
<path d="M35.2506 32.8077C37.1432 30.5924 38.4594 27.9663 39.0881 25.1515C39.7168 22.3367 39.6393 19.416 38.8623 16.6364C38.0853 13.8569 36.6316 11.3003 34.6242 9.1829C32.6167 7.06553 30.1146 5.44967 27.3295 4.47202C24.5443 3.49436 21.5581 3.18368 18.6235 3.56624C15.6888 3.9488 12.892 5.01336 10.4697 6.66986C8.04744 8.32636 6.07087 10.5261 4.70724 13.0829C3.34361 15.6397 2.63303 18.4785 2.63563 21.359C2.63662 25.5464 4.15343 29.5997 6.91989 32.8077L6.89353 32.8295C6.98578 32.9372 7.09121 33.0295 7.18609 33.1359C7.3047 33.2679 7.43253 33.3923 7.55508 33.5205C7.92408 33.9102 8.30361 34.2846 8.7016 34.6359C8.82284 34.7436 8.94803 34.8436 9.07059 34.9461C9.49229 35.3 9.92586 35.6359 10.3752 35.9487C10.4332 35.9872 10.4859 36.0372 10.5439 36.0769V36.0615C13.6304 38.1746 17.3124 39.3086 21.0866 39.3086C24.8607 39.3086 28.5427 38.1746 31.6292 36.0615V36.0769C31.6872 36.0372 31.7386 35.9872 31.7979 35.9487C32.2459 35.6346 32.6808 35.3 33.1025 34.9461C33.2251 34.8436 33.3503 34.7423 33.4715 34.6359C33.8695 34.2833 34.249 33.9102 34.618 33.5205C34.7406 33.3923 34.8671 33.2679 34.987 33.1359C35.0806 33.0295 35.1873 32.9372 35.2796 32.8282L35.2506 32.8077ZM21.0852 11.1025C22.2581 11.1025 23.4047 11.4409 24.3799 12.0748C25.3551 12.7088 26.1152 13.6098 26.5641 14.664C27.0129 15.7182 27.1303 16.8782 26.9015 17.9973C26.6727 19.1164 26.1079 20.1444 25.2785 20.9512C24.4492 21.7581 23.3925 22.3075 22.2422 22.5302C21.0918 22.7528 19.8994 22.6385 18.8158 22.2019C17.7322 21.7652 16.8061 21.0257 16.1544 20.077C15.5028 19.1282 15.155 18.0128 15.155 16.8718C15.155 15.3417 15.7798 13.8743 16.8919 12.7923C18.0041 11.7104 19.5124 11.1025 21.0852 11.1025ZM10.5518 32.8077C10.5747 31.1243 11.2779 29.5174 12.5093 28.3345C13.7407 27.1517 15.4012 26.488 17.1318 26.4872H25.0387C26.7692 26.488 28.4298 27.1517 29.6612 28.3345C30.8926 29.5174 31.5958 31.1243 31.6187 32.8077C28.7284 35.3414 24.9758 36.7437 21.0852 36.7437C17.1947 36.7437 13.442 35.3414 10.5518 32.8077Z" fill="black"/>
</svg>
