<svg width="24" height="24" viewBox="0 0 24 24" fill="none" xmlns="http://www.w3.org/2000/svg">
<path d="M12 1.5C9.21523 1.5 6.54451 2.60625 4.57538 4.57538C2.60625 6.54451 1.5 9.21523 1.5 12C1.5 14.7848 2.60625 17.4555 4.57538 19.4246C6.54451 21.3938 9.21523 22.5 12 22.5C14.7848 22.5 17.4555 21.3938 19.4246 19.4246C21.3938 17.4555 22.5 14.7848 22.5 12C22.5 9.21523 21.3938 6.54451 19.4246 4.57538C17.4555 2.60625 14.7848 1.5 12 1.5V1.5ZM12 10.7265L14.439 8.2875C14.6079 8.11862 14.8369 8.02375 15.0757 8.02375C15.3146 8.02375 15.5436 8.11862 15.7125 8.2875C15.8814 8.45638 15.9763 8.68542 15.9763 8.92425C15.9763 9.16308 15.8814 9.39212 15.7125 9.561L13.2735 12L15.7125 14.439C15.7961 14.5226 15.8624 14.6219 15.9077 14.7311C15.953 14.8404 15.9763 14.9575 15.9763 15.0757C15.9763 15.194 15.953 15.3111 15.9077 15.4204C15.8624 15.5296 15.7961 15.6289 15.7125 15.7125C15.6289 15.7961 15.5296 15.8624 15.4204 15.9077C15.3111 15.953 15.194 15.9763 15.0757 15.9763C14.9575 15.9763 14.8404 15.953 14.7311 15.9077C14.6219 15.8624 14.5226 15.7961 14.439 15.7125L12 13.2735L9.561 15.7125C9.47738 15.7961 9.37811 15.8624 9.26886 15.9077C9.1596 15.953 9.04251 15.9763 8.92425 15.9763C8.80599 15.9763 8.6889 15.953 8.57964 15.9077C8.47039 15.8624 8.37112 15.7961 8.2875 15.7125C8.20388 15.6289 8.13755 15.5296 8.0923 15.4204C8.04704 15.3111 8.02375 15.194 8.02375 15.0757C8.02375 14.9575 8.04704 14.8404 8.0923 14.7311C8.13755 14.6219 8.20388 14.5226 8.2875 14.439L10.7265 12L8.2875 9.561C8.20388 9.47738 8.13755 9.37811 8.0923 9.26886C8.04704 9.1596 8.02375 9.04251 8.02375 8.92425C8.02375 8.80599 8.04704 8.6889 8.0923 8.57964C8.13755 8.47039 8.20388 8.37112 8.2875 8.2875C8.37112 8.20388 8.47039 8.13755 8.57964 8.0923C8.6889 8.04704 8.80599 8.02375 8.92425 8.02375C9.04251 8.02375 9.1596 8.04704 9.26886 8.0923C9.37811 8.13755 9.47738 8.20388 9.561 8.2875L12 10.7265Z" fill="black"/>
</svg>
