<svg width="235" height="192" viewBox="0 0 235 192" fill="none" xmlns="http://www.w3.org/2000/svg">
<path opacity="0.24" d="M76.5166 3.13312C60.4171 9.58397 51.0745 26.1593 38.8885 38.6106C31.9001 45.7679 23.798 51.6757 16.613 58.6255C9.42812 65.5753 3.07306 73.9027 0.889194 83.7048C-3.26453 102.285 8.31435 120.432 11.3456 139.233C12.3108 145.237 12.4113 151.432 14.3375 157.19C15.8618 161.747 18.4824 165.866 21.5137 169.553C33.7914 184.592 53.4418 193.162 72.6904 191.873C85.3875 191.02 97.5865 186.186 110.319 185.651C129.506 184.843 148.873 193.851 167.483 189.078C176.066 186.87 183.666 181.903 190.969 176.843C205.461 166.798 220.547 154.479 223.915 137.043C226.387 124.238 221.984 110.74 225.055 98.0724C226.837 90.7208 231.025 84.1905 233.235 76.9581C237.931 61.6235 232.917 44.1784 222.22 32.3143C211.523 20.4502 195.826 13.8978 180.006 12.507C169.632 11.593 159.193 12.7454 148.781 12.5423C123.369 12.0742 102.885 -7.43287 76.5166 3.13312Z" fill="#00FF85"/>
<path opacity="0.24" d="M54.1612 155.973C53.078 156.194 51.9249 156.481 51.1955 157.298C50.169 158.481 50.4005 160.388 51.3396 161.647C52.2787 162.905 53.7419 163.62 55.1919 164.181C62.0231 166.83 69.5269 166.852 76.8384 166.861C91.597 166.861 106.915 166.773 120.28 160.437C109.479 156.22 99.4197 156.428 88.1771 155.624C76.4803 154.825 65.8623 153.553 54.1612 155.973Z" fill="#00FF85"/>
<path d="M142.896 87.0226L135.951 90.8683L126.107 115.449L146.949 103.911L142.896 87.0226Z" fill="#00FF85"/>
<path d="M172.837 87.0226L179.782 90.8683L189.627 115.449L168.784 103.911L172.837 87.0226Z" fill="#00FF85"/>
<path d="M142.896 87.0226L135.951 90.8683L126.107 115.449L146.949 103.911L142.896 87.0226Z" fill="url(#paint0_linear_5_444)"/>
<path d="M172.837 87.0226L179.782 90.8683L189.627 115.449L168.784 103.911L172.837 87.0226Z" fill="url(#paint1_linear_5_444)"/>
<path d="M90.4571 154.383C90.3225 154.861 90.351 155.37 90.538 155.829C90.725 156.288 91.0597 156.67 91.4879 156.913C91.9136 157.106 92.361 157.245 92.82 157.328C94.2288 157.678 95.5327 158.367 96.62 159.337C96.7969 159.455 96.9412 159.617 97.039 159.807C97.1368 159.997 97.185 160.209 97.179 160.424C97.0786 160.914 96.5108 161.121 96.0303 161.236C95.0201 161.513 93.9886 161.704 92.9467 161.806C90.8283 161.951 88.7318 161.364 86.6877 160.768C85.9103 160.543 84.7397 160.203 84.5606 159.289C84.5245 158.659 84.5538 158.027 84.648 157.404L84.7834 154.224" fill="#606161"/>
<path d="M78.3891 158.176C78.2962 158.419 78.2748 158.684 78.3275 158.938C78.3802 159.193 78.5048 159.427 78.6861 159.611C79.0536 159.975 79.4732 160.28 79.9309 160.516C81.139 161.257 82.2044 162.213 83.0757 163.338C83.4775 163.854 83.8531 164.53 83.5998 165.135C83.4649 165.415 83.2505 165.649 82.9839 165.806C82.1121 166.319 81.1071 166.553 80.1012 166.477C77.5636 166.411 73.8117 164.808 73.0779 162.031C72.8464 161.17 73.0998 159.991 73.1347 159.103L73.2264 156.962" fill="#606161"/>
<path d="M92.772 105.271L90.7978 155.165C90.0359 155.731 89.1221 156.05 88.1771 156.079C86.3558 156.185 86.0282 156.317 84.7179 155.112L78.9962 102.785L92.772 102.494V105.271Z" fill="#606161"/>
<path d="M92.772 105.271L90.7978 155.165C90.0359 155.731 89.1221 156.05 88.1771 156.079C86.3558 156.185 86.0282 156.317 84.7179 155.112L78.9962 102.785L92.772 102.494V105.271Z" fill="url(#paint2_linear_5_444)"/>
<path d="M84.9886 109.753L79.3106 158.278C79.3106 158.278 78.4894 159.13 76.2532 159.161C73.7155 159.192 73.484 158.843 72.9162 157.545L71.7937 101.885L84.8314 104.132L84.9886 109.753Z" fill="#606161"/>
<path d="M84.9886 109.753L79.3106 158.278C79.3106 158.278 78.4894 159.13 76.2532 159.161C73.7155 159.192 73.484 158.843 72.9162 157.545L71.7937 101.885L84.8314 104.132L84.9886 109.753Z" fill="url(#paint3_linear_5_444)"/>
<path d="M86.7576 104.896C84.9785 105.504 83.1459 105.939 81.2849 106.194C78.8171 106.45 76.2314 105.245 74.2965 105.143C71.7152 105.011 71.6453 104.927 71.6453 103.227C71.6453 102.37 93.1083 100.317 93.1083 100.317C93.1083 100.317 93.0079 101.885 93.0122 103.333C93.0122 104.419 92.5536 104.357 90.6012 104.472C88.6489 104.587 88.2732 103.986 86.7576 104.896Z" fill="#F2FBFF"/>
<path d="M78.2886 66.5882C78.2886 66.5882 74.6895 67.5331 72.1213 69.4229C70.5358 70.5885 71.6321 103.227 71.6321 103.227C71.7894 103.2 78.686 106.026 85.3555 104.865C91.0336 103.876 93.0821 101.183 93.0821 101.183C93.0821 101.183 93.5931 69.8644 92.4881 68.5796C91.9989 68.0056 86.596 65.9877 86.596 65.9877C86.596 65.9877 84.2374 69.573 78.2886 66.5882Z" fill="#00FF85"/>
<path d="M78.2886 66.5882C78.2886 66.5882 74.6895 67.5331 72.1213 69.4229C70.5358 70.5885 71.6321 103.227 71.6321 103.227C71.7894 103.2 78.686 106.026 85.3555 104.865C91.0336 103.876 93.0821 101.183 93.0821 101.183C93.0821 101.183 93.5931 69.8644 92.4881 68.5796C91.9989 68.0056 86.596 65.9877 86.596 65.9877C86.596 65.9877 84.2374 69.573 78.2886 66.5882Z" fill="url(#paint4_linear_5_444)"/>
<path d="M79.4679 59.3382L78.2886 66.5882C78.2886 66.5882 80.9092 70.4914 84.2593 69.9086C87.6093 69.3257 86.7664 67.7539 86.7664 67.7539L86.3296 61.6297C86.3296 61.6297 83.3202 62.164 79.4679 59.3382Z" fill="#C8A59C"/>
<path d="M79.0529 61.8814L79.4897 59.3382C83.342 62.164 85.3425 60.963 85.3425 60.963L86.2728 64.2525C85.7494 64.8062 85.0445 65.1483 84.2898 65.215C82.4204 65.3475 80.5511 63.8683 79.0529 61.8814Z" fill="#B58B81"/>
<path d="M78.4371 65.714L74.9429 67.3741C74.9429 67.3741 80.4462 73.2554 82.1234 73.1406C82.1234 73.1406 83.7089 70.1647 85.1809 69.6966L78.4371 65.714Z" fill="#F2FBFF"/>
<path d="M86.5305 66.7251C86.2419 67.7789 85.7908 68.7802 85.194 69.6922C85.5215 69.8202 87.6574 71.3259 87.6923 72.3414C87.6923 72.3414 89.815 67.4845 88.9371 66.7207C88.203 66.3428 87.4492 66.0052 86.679 65.7095L86.5305 66.7251Z" fill="#F2FBFF"/>
<path d="M73.5409 68.5619C73.5409 68.5619 68.138 70.328 67.5265 79.0484C66.9674 86.9961 65.561 92.767 66.7053 95.1203C68.1947 98.189 78.6118 98.6968 78.6118 98.6968C78.8637 97.1695 78.7997 95.6059 78.424 94.1048L72.7153 91.8C72.7153 91.8 73.6326 69.9218 73.5409 68.5619Z" fill="#00FF85"/>
<path d="M76.4498 54.0574C76.7337 58.0798 80.8175 65.1885 84.7922 64.9015C88.7668 64.6145 89.9243 56.2916 89.6404 52.2692C89.3565 48.2468 87.1246 45.964 83.1412 46.251C82.1947 46.3193 81.2709 46.5754 80.4223 47.0047C79.5738 47.434 78.8173 48.0281 78.1959 48.753C77.5745 49.4779 77.1005 50.3195 76.8009 51.2296C76.5013 52.1398 76.382 53.1006 76.4498 54.0574V54.0574Z" fill="#C8A59C"/>
<path d="M85.8186 98.0654C85.7225 97.2971 86.0806 96.5597 86.1855 95.2528C86.2903 93.9459 85.4517 93.6059 84.2243 93.4867C83.888 93.4469 83.6259 93.4072 83.4032 93.3719C82.2588 93.65 83.1717 95.0541 83.2329 96.0211C83.294 96.988 83.08 98.3745 83.4119 98.6703C83.5517 98.7983 84.6043 98.7409 85.8229 98.582C85.8425 98.4103 85.8411 98.2367 85.8186 98.0654V98.0654Z" fill="#B58B81"/>
<path d="M86.5742 60.7467C86.5742 60.7467 86.465 60.6451 85.6308 60.7069C84.6403 60.758 83.6473 60.6868 82.6738 60.495C82.0318 60.3316 81.726 60.4332 81.8003 61.303C81.8745 62.1728 82.5472 62.9455 84.2331 63.0382C86.1244 63.1398 86.9193 62.4201 87.0678 61.5591C87.1726 60.9365 86.7839 60.729 86.5742 60.7467Z" fill="#C8A59C"/>
<path d="M79.3106 94.2417C80.0196 94.0892 80.7184 93.8916 81.4027 93.65C82.3025 93.3056 82.5864 93.5087 83.9055 93.65C85.2245 93.7913 86.1286 94.1313 86.0151 95.4692C85.9015 96.807 85.5215 97.5576 85.622 98.3391C85.7224 99.1207 85.4822 99.7918 84.3117 99.8183C83.1411 99.8448 79.3106 98.6526 79.3106 98.6526" fill="#C8A59C"/>
<path d="M78.0353 93.8929H80.04C80.04 93.8929 80.9136 96.8159 79.778 98.8425L77.5635 98.7498C77.5635 98.7498 78.3148 95.9063 78.0353 93.8929Z" fill="#F2FBFF"/>
<path d="M79.0486 95.3102C79.2922 95.3102 79.4897 95.0987 79.4897 94.8377C79.4897 94.5768 79.2922 94.3653 79.0486 94.3653C78.8049 94.3653 78.6074 94.5768 78.6074 94.8377C78.6074 95.0987 78.8049 95.3102 79.0486 95.3102Z" fill="#D2E8EC"/>
<path d="M86.8624 55.956C86.7968 55.7004 86.782 55.4342 86.8187 55.1727C86.8555 54.9113 86.943 54.6598 87.0764 54.4327C87.2074 54.2045 87.3823 54.0052 87.5909 53.8467C87.7995 53.6882 88.0374 53.5736 88.2907 53.5099C88.5473 53.4299 88.8174 53.4033 89.0845 53.4318C89.3516 53.4603 89.6102 53.5432 89.8448 53.6755C90.0793 53.8078 90.2849 53.9869 90.449 54.2018C90.6132 54.4167 90.7326 54.663 90.8 54.9258C90.8673 55.1887 90.8813 55.4626 90.841 55.7311C90.8007 55.9995 90.707 56.2569 90.5655 56.4877C90.4241 56.7186 90.2378 56.918 90.018 57.074C89.7982 57.23 89.5493 57.3393 89.2865 57.3954H89.2166C88.7163 57.5088 88.192 57.4224 87.7533 57.1541C87.3145 56.8859 86.9953 56.4566 86.8624 55.956V55.956ZM88.4086 53.9779C88.0214 54.0797 87.69 54.3326 87.4869 54.681C87.2839 55.0295 87.2258 55.4451 87.3254 55.8368C87.3994 56.1273 87.5563 56.3894 87.7767 56.5903C87.997 56.7913 88.271 56.9222 88.5645 56.9668C88.8579 57.0113 89.1579 56.9675 89.4269 56.8409C89.6959 56.7143 89.9221 56.5103 90.0772 56.2546C90.2324 55.9989 90.3096 55.7026 90.2993 55.4028C90.2889 55.103 90.1915 54.8129 90.0191 54.5687C89.8468 54.3245 89.6071 54.137 89.33 54.0295C89.0529 53.9221 88.7507 53.8996 88.461 53.9647L88.4086 53.9779Z" fill="#292F67"/>
<path d="M82.8048 57.4263C82.549 57.2747 82.3254 57.0733 82.147 56.8338C81.9685 56.5943 81.8388 56.3215 81.7653 56.0311V56.0311C81.6546 55.5949 81.6741 55.1355 81.8215 54.7106C81.9689 54.2857 82.2375 53.9145 82.5934 53.6439C82.9494 53.3732 83.3766 53.2152 83.8213 53.1898C84.266 53.1645 84.7081 53.2729 85.0919 53.5013C85.4757 53.7298 85.7839 54.0681 85.9776 54.4735C86.1714 54.8789 86.2419 55.3333 86.1804 55.7792C86.1189 56.2251 85.9281 56.6426 85.632 56.979C85.336 57.3154 84.9479 57.5555 84.517 57.6692H84.434C83.8802 57.802 83.2971 57.7151 82.8048 57.4263V57.4263ZM83.5037 53.7218C83.2755 53.7803 83.0611 53.8841 82.873 54.0273C82.685 54.1704 82.527 54.3499 82.4082 54.5554C82.2895 54.7609 82.2125 54.9883 82.1816 55.2242C82.1507 55.4601 82.1666 55.6999 82.2283 55.9295C82.316 56.2706 82.501 56.5781 82.7602 56.8137C83.0195 57.0494 83.3415 57.2028 83.6863 57.2548C84.0311 57.3068 84.3835 57.2552 84.6995 57.1064C85.0155 56.9575 85.2813 56.718 85.4637 56.4177C85.6461 56.1174 85.7371 55.7694 85.7255 55.4172C85.7138 55.065 85.5999 54.724 85.398 54.4367C85.1961 54.1494 84.9151 53.9284 84.5899 53.8013C84.2647 53.6742 83.9098 53.6466 83.5692 53.7218H83.5037Z" fill="#292F67"/>
<path d="M86.81 55.4791L87.2686 55.3423C87.2393 55.2489 87.1895 55.1635 87.123 55.0924C87.0564 55.0213 86.9748 54.9663 86.8843 54.9316C86.6819 54.8755 86.4698 54.865 86.263 54.9009C86.0563 54.9367 85.8598 55.0181 85.6875 55.1392L85.9146 55.5807C86.382 55.3246 86.6091 55.3511 86.7008 55.3908C86.7471 55.405 86.7862 55.4366 86.81 55.4791Z" fill="#292F67"/>
<path d="M81.9531 55.3511L81.9357 54.8698L79.2102 54.9493L79.232 55.4306L81.9531 55.3511Z" fill="#292F67"/>
<path d="M92.4881 68.5795C92.4881 68.5795 95.5062 77.0835 97.3843 83.9759C99.2625 90.8683 104.809 84.0951 104.809 84.0951C104.809 84.0951 107.867 83.9759 107.98 85.8613C108.094 87.7467 106.233 93.809 100.931 93.9414C95.6285 94.0739 90.0116 87.049 90.0116 87.049L92.4881 68.5795Z" fill="#00FF85"/>
<path d="M100.608 98.1272L89.8238 97.9683C89.5444 97.9842 89.2653 97.9336 89.0088 97.8206C88.7524 97.7075 88.5258 97.5351 88.3473 97.3173C88.1688 97.0995 88.0434 96.8424 87.9813 96.5666C87.9191 96.2908 87.9218 96.0042 87.9893 95.7297L92.1081 76.4566C92.2689 75.8361 92.628 75.2867 93.1296 74.8938C93.6312 74.5009 94.2471 74.2866 94.8816 74.2842L105.666 74.4432C105.945 74.4262 106.225 74.4762 106.482 74.589C106.739 74.7017 106.966 74.8741 107.144 75.0922C107.323 75.3102 107.448 75.5678 107.51 75.844C107.572 76.1202 107.568 76.4072 107.5 76.6818L103.386 95.9549C103.224 96.5757 102.864 97.1252 102.362 97.5181C101.859 97.9109 101.243 98.125 100.608 98.1272V98.1272Z" fill="#00FF85"/>
<path d="M100.608 98.1272L89.8238 97.9683C89.5444 97.9842 89.2653 97.9336 89.0088 97.8206C88.7524 97.7075 88.5258 97.5351 88.3473 97.3173C88.1688 97.0995 88.0434 96.8424 87.9813 96.5666C87.9191 96.2908 87.9218 96.0042 87.9893 95.7297L92.1081 76.4566C92.2689 75.8361 92.628 75.2867 93.1296 74.8938C93.6312 74.5009 94.2471 74.2866 94.8816 74.2842L105.666 74.4432C105.945 74.4262 106.225 74.4762 106.482 74.589C106.739 74.7017 106.966 74.8741 107.144 75.0922C107.323 75.3102 107.448 75.5678 107.51 75.844C107.572 76.1202 107.568 76.4072 107.5 76.6818L103.386 95.9549C103.224 96.5757 102.864 97.1252 102.362 97.5181C101.859 97.9109 101.243 98.125 100.608 98.1272V98.1272Z" fill="url(#paint5_linear_5_444)"/>
<path d="M100.682 98.242L90.3654 98.0875C90.0985 98.1009 89.8323 98.0511 89.5879 97.9419C89.3435 97.8327 89.1278 97.6673 88.958 97.4587C88.7882 97.2502 88.669 97.0043 88.6101 96.7409C88.5511 96.4775 88.5539 96.2037 88.6183 95.9416L92.5493 77.4986C92.7048 76.9046 93.0497 76.3789 93.5305 76.003C94.0114 75.627 94.6014 75.4218 95.2092 75.4189L105.53 75.5735C105.797 75.5591 106.064 75.6083 106.309 75.7171C106.554 75.826 106.77 75.9915 106.94 76.2003C107.11 76.4091 107.229 76.6554 107.288 76.9192C107.346 77.1831 107.343 77.4571 107.277 77.7194L103.346 96.1624C103.191 96.7571 102.845 97.2833 102.363 97.6593C101.882 98.0353 101.291 98.2401 100.682 98.242V98.242Z" fill="#00FF85"/>
<path d="M107.631 84.9826C107.623 84.5555 107.532 84.134 107.365 83.7419C107.249 83.3436 107.018 82.9896 106.701 82.7264C106.35 82.5264 105.95 82.4286 105.548 82.4438C105.141 82.4438 104.731 82.4438 104.325 82.4438C103.877 82.4363 103.432 82.5173 103.014 82.6822C102.418 83.0106 101.954 83.5403 101.704 84.179C101.145 85.3844 101.027 86.9166 101.826 87.9718C102.179 88.3909 102.595 88.7514 103.058 89.0404C103.56 89.3892 104.15 89.7556 104.74 89.5923C105.02 89.4925 105.277 89.3329 105.491 89.1242L106.364 88.3913C106.662 88.1672 106.915 87.8868 107.107 87.5656C107.267 87.1509 107.344 86.7082 107.334 86.2631C107.454 85.8416 107.553 85.4142 107.631 84.9826V84.9826Z" fill="#C8A59C"/>
<path d="M89.1075 47.0546C88.5471 45.7109 87.7275 44.4936 86.6965 43.4737L86.6135 44.2818C84.9766 43.526 83.2097 43.1001 81.4115 43.0278L81.5688 43.593C80.9148 43.4278 80.287 43.1706 79.7038 42.8291L79.1403 43.8446C78.7576 43.5376 78.3379 43.2809 77.8912 43.0808L77.1617 45.73C76.9557 45.6185 76.7648 45.4805 76.5939 45.3194C76.4018 45.1869 76.0916 45.1472 75.9694 45.3459C75.9221 45.4415 75.9024 45.5486 75.9126 45.6549V46.7941L74.8381 46.4056C74.7923 46.3839 74.7424 46.3726 74.6918 46.3726C74.6412 46.3726 74.5913 46.3839 74.5455 46.4056C74.5098 46.4355 74.4806 46.4725 74.4595 46.5142C74.4385 46.556 74.4261 46.6016 74.4232 46.6484C73.6413 50.5957 75.2967 55.7308 77.8693 58.7995C77.9683 58.3267 77.9194 57.8345 77.7295 57.391C77.5155 56.8258 76.856 56.5079 76.9696 55.9118C76.9997 55.6104 77.1391 55.331 77.3608 55.1272C77.5826 54.9234 77.871 54.8097 78.1707 54.808C79.0049 54.9051 78.6948 55.2142 79.2888 55.8147C79.4985 54.6446 78.9962 52.724 79.3587 51.598C79.4788 51.3018 79.6658 51.038 79.9047 50.8278C80.1436 50.6176 80.4278 50.4668 80.7346 50.3874C81.0414 50.308 81.3624 50.3023 81.6718 50.3707C81.9812 50.4391 82.2705 50.5796 82.5166 50.7812C82.4904 50.0306 83.3639 49.5493 84.1064 49.5758C84.849 49.6023 85.6919 49.8893 86.4781 49.9864C87.1464 50.0659 87.8321 50.5383 88.4742 50.5295C90.1252 50.503 89.4613 47.9951 89.1075 47.0546Z" fill="#606161"/>
<path opacity="0.24" d="M157.502 151.814C164.143 151.814 169.526 151.151 169.526 150.335C169.526 149.518 164.143 148.855 157.502 148.855C150.861 148.855 145.477 149.518 145.477 150.335C145.477 151.151 150.861 151.814 157.502 151.814Z" fill="#00FF85"/>
<path opacity="0.24" d="M156.772 161.461C167.543 161.461 176.274 160.388 176.274 159.064C176.274 157.74 167.543 156.666 156.772 156.666C146.002 156.666 137.271 157.74 137.271 159.064C137.271 160.388 146.002 161.461 156.772 161.461Z" fill="#00FF85"/>
<path d="M157.135 144.484C174.006 144.484 187.683 142.802 187.683 140.727C187.683 138.652 174.006 136.969 157.135 136.969C140.264 136.969 126.587 138.652 126.587 140.727C126.587 142.802 140.264 144.484 157.135 144.484Z" stroke="white" stroke-width="4.36952" stroke-miterlimit="10"/>
<path d="M157.816 24.6157C157.816 24.6157 124.993 44.1007 144.276 104.869H171.033C171.033 104.869 190.898 56.5124 157.816 24.6157Z" fill="#00FF85"/>
<path d="M157.816 24.6157C157.816 24.6157 124.993 44.1007 144.276 104.869H171.033C171.033 104.869 190.898 56.5124 157.816 24.6157Z" fill="url(#paint6_linear_5_444)"/>
<path d="M157.257 73.2333C162.219 73.2333 166.242 69.167 166.242 64.1509C166.242 59.1348 162.219 55.0685 157.257 55.0685C152.295 55.0685 148.273 59.1348 148.273 64.1509C148.273 69.167 152.295 73.2333 157.257 73.2333Z" fill="#00FF85"/>
<path d="M146.521 126.218L149.823 120.138C150.407 127.601 152.22 134.913 155.187 141.773C160.52 136.408 161.856 128.311 162.887 120.778C164.401 124.475 165.754 128.233 166.945 132.051C169.365 127.197 170.155 121.679 169.194 116.332L171.247 119.864C172.65 114.74 172.045 109.267 169.557 104.582C165.317 104.9 161.069 105.111 156.812 105.214C154.773 105.267 152.726 105.293 150.671 105.293C149.321 105.293 146.836 104.759 145.604 105.452C143.237 106.777 144.102 112.486 144.25 114.831C144.373 116.769 144.625 118.697 145.006 120.601C145.185 121.498 146.858 125.6 146.521 126.218Z" fill="#00FF85"/>
<path d="M146.521 126.218L149.823 120.138C150.407 127.601 152.22 134.913 155.187 141.773C160.52 136.408 161.856 128.311 162.887 120.778C164.401 124.475 165.754 128.233 166.945 132.051C169.365 127.197 170.155 121.679 169.194 116.332L171.247 119.864C172.65 114.74 172.045 109.267 169.557 104.582C165.317 104.9 161.069 105.111 156.812 105.214C154.773 105.267 152.726 105.293 150.671 105.293C149.321 105.293 146.836 104.759 145.604 105.452C143.237 106.777 144.102 112.486 144.25 114.831C144.373 116.769 144.625 118.697 145.006 120.601C145.185 121.498 146.858 125.6 146.521 126.218Z" fill="url(#paint7_linear_5_444)"/>
<path d="M151.064 118.584L153.073 114.875C153.432 119.426 154.539 123.885 156.349 128.068C159.598 124.796 160.415 119.855 161.044 115.263C161.97 117.521 162.796 119.814 163.521 122.142C164.996 119.181 165.478 115.815 164.892 112.552L166.141 114.716C167.004 111.584 166.635 108.236 165.11 105.373C162.525 105.567 159.935 105.697 157.34 105.761C156.091 105.791 154.842 105.806 153.593 105.806C152.772 105.806 151.256 105.479 150.505 105.903C149.059 106.72 149.583 110.194 149.675 111.643C149.752 112.829 149.907 114.009 150.138 115.175C150.247 115.705 151.265 118.208 151.064 118.584Z" fill="url(#paint8_linear_5_444)"/>
<path d="M151.107 30.8193C151.107 30.8193 157.912 33.1374 163.446 30.8193L157.952 24.7791C157.821 24.635 157.661 24.5212 157.482 24.4453C157.304 24.3693 157.111 24.333 156.918 24.3389C156.724 24.3448 156.534 24.3926 156.361 24.4792C156.187 24.5659 156.034 24.6892 155.912 24.8409L151.107 30.8193Z" fill="#00FF85"/>
<path d="M151.107 30.8193C151.107 30.8193 157.912 33.1374 163.446 30.8193L157.886 24.7084C157.763 24.5734 157.613 24.4667 157.446 24.3955C157.279 24.3243 157.098 24.2903 156.917 24.2957C156.735 24.3012 156.557 24.346 156.394 24.4271C156.232 24.5082 156.088 24.6237 155.973 24.7658L151.107 30.8193Z" fill="url(#paint9_linear_5_444)"/>
<path d="M168.897 127.008C173.475 127.45 176.392 128.169 176.392 128.955C176.392 130.351 167.22 131.481 155.864 131.481C144.508 131.481 135.336 130.351 135.336 128.955C135.336 127.803 141.643 126.827 150.251 126.527" stroke="white" stroke-width="2.93412" stroke-miterlimit="10"/>
<defs>
<linearGradient id="paint0_linear_5_444" x1="139.463" y1="80.5055" x2="129.713" y2="175.401" gradientUnits="userSpaceOnUse">
<stop stop-color="#010101" stop-opacity="0"/>
<stop offset="0.95" stop-color="#010101"/>
</linearGradient>
<linearGradient id="paint1_linear_5_444" x1="8870.05" y1="5549.11" x2="8030.72" y2="11606.7" gradientUnits="userSpaceOnUse">
<stop stop-color="#010101" stop-opacity="0"/>
<stop offset="0.95" stop-color="#010101"/>
</linearGradient>
<linearGradient id="paint2_linear_5_444" x1="3451.6" y1="18313.1" x2="87.2907" y2="17412.2" gradientUnits="userSpaceOnUse">
<stop stop-color="#010101" stop-opacity="0"/>
<stop offset="0.95" stop-color="#010101"/>
</linearGradient>
<linearGradient id="paint3_linear_5_444" x1="3069.68" y1="18879.3" x2="1201.92" y2="18732.3" gradientUnits="userSpaceOnUse">
<stop stop-color="#010101" stop-opacity="0"/>
<stop offset="0.95" stop-color="#010101"/>
</linearGradient>
<linearGradient id="paint4_linear_5_444" x1="4548.42" y1="7897.88" x2="3509.44" y2="15384.3" gradientUnits="userSpaceOnUse">
<stop stop-color="#010101" stop-opacity="0"/>
<stop offset="0.95" stop-color="#010101"/>
</linearGradient>
<linearGradient id="paint5_linear_5_444" x1="4728.84" y1="4101.13" x2="4895.08" y2="7922.02" gradientUnits="userSpaceOnUse">
<stop stop-color="#010101" stop-opacity="0"/>
<stop offset="0.95" stop-color="#010101"/>
</linearGradient>
<linearGradient id="paint6_linear_5_444" x1="133.737" y1="66.3498" x2="170.572" y2="64.4616" gradientUnits="userSpaceOnUse">
<stop stop-color="white" stop-opacity="0"/>
<stop offset="0.95" stop-color="white"/>
</linearGradient>
<linearGradient id="paint7_linear_5_444" x1="10635.6" y1="12279.7" x2="10894.6" y2="5751.97" gradientUnits="userSpaceOnUse">
<stop stop-color="#010101" stop-opacity="0"/>
<stop offset="0.95" stop-color="#010101"/>
</linearGradient>
<linearGradient id="paint8_linear_5_444" x1="6563.75" y1="6946.55" x2="6659.82" y2="4516.88" gradientUnits="userSpaceOnUse">
<stop stop-color="#010101" stop-opacity="0"/>
<stop offset="0.95" stop-color="#010101"/>
</linearGradient>
<linearGradient id="paint9_linear_5_444" x1="4863.32" y1="662.866" x2="4390.57" y2="528.569" gradientUnits="userSpaceOnUse">
<stop stop-color="#010101" stop-opacity="0"/>
<stop offset="0.95" stop-color="#010101"/>
</linearGradient>
</defs>
</svg>
