<svg width="19" height="19" viewBox="0 0 19 19" fill="none" xmlns="http://www.w3.org/2000/svg">
<path fill-rule="evenodd" clip-rule="evenodd" d="M5.3875 0.0554869C6.365 0.0100885 6.67667 0 9.16667 0C11.6567 0 11.9683 0.0109292 12.945 0.0554869C13.9217 0.100045 14.5883 0.257257 15.1717 0.48509C15.7825 0.717967 16.3367 1.08199 16.795 1.55279C17.2617 2.01434 17.6217 2.57257 17.8517 3.18966C18.0783 3.77815 18.2333 4.45072 18.2783 5.43435C18.3233 6.42219 18.3333 6.73661 18.3333 9.24782C18.3333 11.7599 18.3225 12.0743 18.2783 13.0604C18.2342 14.0441 18.0783 14.7166 17.8517 15.3051C17.6217 15.9223 17.2611 16.4815 16.795 16.9437C16.3367 17.4145 15.7825 17.7777 15.1717 18.0097C14.5883 18.2384 13.9217 18.3947 12.9467 18.4401C11.9683 18.4855 11.6567 18.4956 9.16667 18.4956C6.67667 18.4956 6.365 18.4847 5.3875 18.4401C4.4125 18.3956 3.74584 18.2384 3.1625 18.0097C2.55077 17.7776 1.99652 17.4139 1.53833 16.9437C1.07198 16.4819 0.711096 15.923 0.480834 15.306C0.255 14.7175 0.1 14.0449 0.055 13.0613C0.00999999 12.0734 0 11.759 0 9.24782C0 6.73577 0.0108333 6.42135 0.055 5.43604C0.0991667 4.45072 0.255 3.77815 0.480834 3.18966C0.711436 2.57264 1.0726 2.01377 1.53917 1.55195C1.9967 1.08158 2.55039 0.717499 3.16167 0.48509C3.745 0.257257 4.41167 0.100885 5.38667 0.0554869H5.3875ZM12.8708 1.72009C11.9042 1.67554 11.6142 1.66629 9.16667 1.66629C6.71917 1.66629 6.42917 1.67554 5.4625 1.72009C4.56834 1.76129 4.08334 1.91178 3.76 2.03872C3.3325 2.20687 3.02667 2.40611 2.70584 2.72979C2.40171 3.02828 2.16765 3.39166 2.02083 3.79329C1.895 4.11948 1.74583 4.60878 1.705 5.51086C1.66083 6.48608 1.65167 6.77865 1.65167 9.24782C1.65167 11.717 1.66083 12.0096 1.705 12.9848C1.74583 13.8869 1.895 14.3762 2.02083 14.7023C2.1675 15.1034 2.40167 15.4674 2.70584 15.7658C3.00167 16.0727 3.3625 16.3089 3.76 16.4569C4.08334 16.5839 4.56834 16.7343 5.4625 16.7755C6.42917 16.8201 6.71834 16.8293 9.16667 16.8293C11.615 16.8293 11.9042 16.8201 12.8708 16.7755C13.765 16.7343 14.25 16.5839 14.5733 16.4569C15.0008 16.2888 15.3067 16.0895 15.6275 15.7658C15.9317 15.4674 16.1658 15.1034 16.3125 14.7023C16.4383 14.3762 16.5875 13.8869 16.6283 12.9848C16.6725 12.0096 16.6817 11.717 16.6817 9.24782C16.6817 6.77865 16.6725 6.48608 16.6283 5.51086C16.5875 4.60878 16.4383 4.11948 16.3125 3.79329C16.1458 3.362 15.9483 3.05346 15.6275 2.72979C15.3316 2.42299 14.9714 2.18687 14.5733 2.03872C14.25 1.91178 13.765 1.76129 12.8708 1.72009ZM7.99584 12.0987C8.64972 12.3733 9.37782 12.4103 10.0558 12.2035C10.7337 11.9967 11.3195 11.5589 11.713 10.9648C12.1065 10.3706 12.2834 9.65713 12.2134 8.94609C12.1434 8.23505 11.8308 7.57058 11.3292 7.06617C11.0094 6.74374 10.6227 6.49685 10.1969 6.34329C9.77122 6.18972 9.31703 6.13329 8.86708 6.17806C8.41714 6.22283 7.98263 6.36769 7.59484 6.60221C7.20705 6.83673 6.87562 7.15507 6.62442 7.53432C6.37322 7.91357 6.20849 8.3443 6.1421 8.79548C6.07571 9.24667 6.1093 9.70709 6.24045 10.1436C6.37161 10.5801 6.59707 10.9819 6.9006 11.3199C7.20414 11.658 7.57819 11.924 7.99584 12.0987ZM5.835 5.88666C6.27252 5.44526 6.79194 5.09513 7.36359 4.85625C7.93523 4.61737 8.54792 4.49442 9.16667 4.49442C9.78542 4.49442 10.3981 4.61737 10.9698 4.85625C11.5414 5.09513 12.0608 5.44526 12.4983 5.88666C12.9359 6.32805 13.2829 6.85206 13.5197 7.42877C13.7565 8.00548 13.8784 8.62359 13.8784 9.24782C13.8784 9.87204 13.7565 10.4902 13.5197 11.0669C13.2829 11.6436 12.9359 12.1676 12.4983 12.609C11.6147 13.5004 10.4163 14.0012 9.16667 14.0012C7.91705 14.0012 6.71862 13.5004 5.835 12.609C4.95139 11.7175 4.45498 10.5085 4.45498 9.24782C4.45498 7.98714 4.95139 6.77809 5.835 5.88666ZM14.9233 5.20232C15.0318 5.09914 15.1186 4.97506 15.1786 4.83743C15.2386 4.6998 15.2707 4.55141 15.2729 4.40106C15.275 4.25071 15.2473 4.10145 15.1912 3.96211C15.1352 3.82277 15.052 3.69619 14.9466 3.58987C14.8412 3.48354 14.7158 3.39963 14.5777 3.3431C14.4396 3.28657 14.2916 3.25857 14.1426 3.26077C13.9935 3.26296 13.8465 3.29529 13.71 3.35586C13.5736 3.41643 13.4506 3.50399 13.3483 3.61337C13.1494 3.8261 13.0405 4.10865 13.0448 4.40106C13.049 4.69347 13.166 4.9727 13.371 5.17949C13.5759 5.38627 13.8527 5.50432 14.1426 5.50859C14.4324 5.51285 14.7125 5.40299 14.9233 5.20232Z" fill="black"/>
</svg>
