<svg width="94" height="28" viewBox="0 0 94 28" fill="none" xmlns="http://www.w3.org/2000/svg">
<rect width="94" height="28" rx="10" fill="white"/>
<path d="M38.688 20.162C37.764 20.162 36.924 19.952 36.168 19.532C35.424 19.112 34.836 18.518 34.404 17.75C33.984 16.97 33.774 16.07 33.774 15.05C33.774 14.042 33.99 13.154 34.422 12.386C34.866 11.606 35.466 11.012 36.222 10.604C36.978 10.184 37.824 9.974 38.76 9.974C39.696 9.974 40.542 10.184 41.298 10.604C42.054 11.012 42.648 11.6 43.08 12.368C43.524 13.136 43.746 14.03 43.746 15.05C43.746 16.07 43.518 16.97 43.062 17.75C42.618 18.518 42.012 19.112 41.244 19.532C40.476 19.952 39.624 20.162 38.688 20.162ZM38.688 18.722C39.276 18.722 39.828 18.584 40.344 18.308C40.86 18.032 41.274 17.618 41.586 17.066C41.91 16.514 42.072 15.842 42.072 15.05C42.072 14.258 41.916 13.586 41.604 13.034C41.292 12.482 40.884 12.074 40.38 11.81C39.876 11.534 39.33 11.396 38.742 11.396C38.142 11.396 37.59 11.534 37.086 11.81C36.594 12.074 36.198 12.482 35.898 13.034C35.598 13.586 35.448 14.258 35.448 15.05C35.448 15.854 35.592 16.532 35.88 17.084C36.18 17.636 36.576 18.05 37.068 18.326C37.56 18.59 38.1 18.722 38.688 18.722ZM50.7057 9.956C51.9057 9.956 52.8777 10.322 53.6217 11.054C54.3657 11.774 54.7377 12.818 54.7377 14.186V20H53.1177V14.42C53.1177 13.436 52.8717 12.686 52.3797 12.17C51.8877 11.642 51.2157 11.378 50.3637 11.378C49.4997 11.378 48.8097 11.648 48.2937 12.188C47.7897 12.728 47.5377 13.514 47.5377 14.546V20H45.8997V10.136H47.5377V11.54C47.8617 11.036 48.2997 10.646 48.8517 10.37C49.4157 10.094 50.0337 9.956 50.7057 9.956ZM59.0513 6.68V20H57.4133V6.68H59.0513ZM62.689 8.534C62.377 8.534 62.113 8.426 61.897 8.21C61.681 7.994 61.573 7.73 61.573 7.418C61.573 7.106 61.681 6.842 61.897 6.626C62.113 6.41 62.377 6.302 62.689 6.302C62.989 6.302 63.241 6.41 63.445 6.626C63.661 6.842 63.769 7.106 63.769 7.418C63.769 7.73 63.661 7.994 63.445 8.21C63.241 8.426 62.989 8.534 62.689 8.534ZM63.481 10.136V20H61.843V10.136H63.481ZM71.0787 9.956C72.2787 9.956 73.2507 10.322 73.9947 11.054C74.7387 11.774 75.1107 12.818 75.1107 14.186V20H73.4907V14.42C73.4907 13.436 73.2447 12.686 72.7527 12.17C72.2607 11.642 71.5887 11.378 70.7367 11.378C69.8727 11.378 69.1827 11.648 68.6667 12.188C68.1627 12.728 67.9107 13.514 67.9107 14.546V20H66.2727V10.136H67.9107V11.54C68.2347 11.036 68.6727 10.646 69.2247 10.37C69.7887 10.094 70.4067 9.956 71.0787 9.956ZM86.7864 14.69C86.7864 15.002 86.7684 15.332 86.7324 15.68H78.8484C78.9084 16.652 79.2384 17.414 79.8384 17.966C80.4504 18.506 81.1884 18.776 82.0524 18.776C82.7604 18.776 83.3484 18.614 83.8164 18.29C84.2964 17.954 84.6324 17.51 84.8244 16.958H86.5884C86.3244 17.906 85.7964 18.68 85.0044 19.28C84.2124 19.868 83.2284 20.162 82.0524 20.162C81.1164 20.162 80.2764 19.952 79.5324 19.532C78.8004 19.112 78.2244 18.518 77.8044 17.75C77.3844 16.97 77.1744 16.07 77.1744 15.05C77.1744 14.03 77.3784 13.136 77.7864 12.368C78.1944 11.6 78.7644 11.012 79.4964 10.604C80.2404 10.184 81.0924 9.974 82.0524 9.974C82.9884 9.974 83.8164 10.178 84.5364 10.586C85.2564 10.994 85.8084 11.558 86.1924 12.278C86.5884 12.986 86.7864 13.79 86.7864 14.69ZM85.0944 14.348C85.0944 13.724 84.9564 13.19 84.6804 12.746C84.4044 12.29 84.0264 11.948 83.5464 11.72C83.0784 11.48 82.5564 11.36 81.9804 11.36C81.1524 11.36 80.4444 11.624 79.8564 12.152C79.2804 12.68 78.9504 13.412 78.8664 14.348H85.0944Z" fill="black"/>
<ellipse cx="14.5" cy="14" rx="5.5" ry="5" fill="#33FF00"/>
</svg>
