<svg width="24" height="15" viewBox="0 0 24 15" fill="none" xmlns="http://www.w3.org/2000/svg">
<path d="M22 0.851562H9C7.9 0.851562 7 1.76278 7 2.87649V11.9887C7 12.5257 7.21071 13.0408 7.58579 13.4205C7.96086 13.8003 8.46957 14.0136 9 14.0136H22C23.11 14.0136 24 13.1125 24 11.9887V2.87649C24 2.33945 23.7893 1.8244 23.4142 1.44465C23.0391 1.0649 22.5304 0.851563 22 0.851562ZM22 4.56731L15.5 7.93882L9 4.56731V2.87649L15.5 6.22775L22 2.87649V4.56731ZM5 11.9887C5 12.1608 5.03 12.3228 5.05 12.4949H1C0.448 12.4949 0 12.0393 0 11.4824C0 10.9256 0.448 10.47 1 10.47H5V11.9887ZM3 2.37026H5.05C5.03 2.54238 5 2.70437 5 2.87649V4.39519H3C2.45 4.39519 2 3.93958 2 3.38272C2 2.82587 2.45 2.37026 3 2.37026ZM1 7.43258C1 6.87573 1.45 6.42012 2 6.42012H5V8.44505H2C1.45 8.44505 1 7.98944 1 7.43258Z" fill="black"/>
</svg>
