<svg width="20" height="21" viewBox="0 0 20 21" fill="none" xmlns="http://www.w3.org/2000/svg">
<path d="M17.1117 2.94004C15.2588 1.03449 12.6975 0 10.0817 0C4.52321 0 0.0545304 4.51894 0.108983 10.0179C0.108983 11.7602 0.599444 13.448 1.41693 14.9724L0 20.1447L5.28609 18.7836C6.75747 19.6003 8.39229 19.9815 10.0273 19.9815C15.5313 19.9815 20 15.4624 20 9.96357C20 7.29569 18.9645 4.79118 17.1118 2.94004H17.1117ZM10.0817 18.2937C8.61033 18.2937 7.13895 17.9126 5.88553 17.1504L5.55859 16.987L2.39785 17.8037L3.21526 14.7003L2.9973 14.3736C0.599444 10.5081 1.74388 5.39007 5.66757 2.99444C9.59126 0.598888 14.6594 1.74226 17.0572 5.66231C19.455 9.58236 18.3106 14.6458 14.387 17.0414C13.1335 17.8581 11.6076 18.2936 10.0817 18.2936V18.2937ZM14.8773 12.2503L14.2779 11.9781C14.2779 11.9781 13.406 11.5969 12.861 11.3247C12.8065 11.3247 12.7521 11.2702 12.6975 11.2702C12.534 11.2702 12.425 11.3247 12.3161 11.3792C12.3161 11.3792 12.2616 11.4336 11.4986 12.3047C11.4441 12.4136 11.3351 12.4681 11.2262 12.4681H11.1716C11.1172 12.4681 11.0082 12.4136 10.9537 12.3592L10.6812 12.2503C10.0817 11.9781 9.5368 11.6513 9.10079 11.2158C8.99181 11.1069 8.8283 10.9981 8.71932 10.8892C8.33784 10.5081 7.95636 10.0724 7.68394 9.58244L7.62941 9.47356C7.57496 9.41908 7.57496 9.36468 7.52043 9.2558C7.52043 9.14691 7.52043 9.03803 7.57496 8.98355C7.57496 8.98355 7.79293 8.71131 7.95636 8.54803C8.06542 8.43907 8.11987 8.27578 8.22886 8.1669C8.33784 8.00354 8.39237 7.78578 8.33784 7.62242C8.28339 7.35017 7.62941 5.88015 7.46598 5.55351C7.35692 5.39015 7.24801 5.33575 7.0845 5.28127H6.48505C6.37599 5.28127 6.26709 5.33575 6.15803 5.33575L6.1035 5.39015C5.99452 5.44463 5.88553 5.55351 5.77655 5.60791C5.66757 5.71687 5.61304 5.82567 5.50405 5.93463C5.12258 6.42464 4.90461 7.02353 4.90461 7.62242C4.90461 8.05794 5.01359 8.49355 5.17711 8.87467L5.23164 9.03803C5.7221 10.0724 6.37599 10.9981 7.24801 11.8147L7.46598 12.0325C7.62941 12.1958 7.79293 12.3047 7.90191 12.468C9.04634 13.4481 10.3542 14.1559 11.8256 14.537C11.9891 14.5914 12.2071 14.5914 12.3706 14.6459H12.9155C13.188 14.6459 13.5149 14.537 13.733 14.4281C13.8964 14.3192 14.0054 14.3192 14.1144 14.2103L14.2234 14.1014C14.3324 13.9925 14.4414 13.9381 14.5504 13.8292C14.6594 13.7203 14.7684 13.6115 14.8229 13.5025C14.9319 13.2847 14.9863 13.0125 15.0409 12.7403V12.3592C15.0409 12.3592 14.9863 12.3047 14.8773 12.2503Z" fill="black"/>
</svg>
