<svg width="24" height="26" viewBox="0 0 24 26" fill="none" xmlns="http://www.w3.org/2000/svg">
<path d="M18.2679 0.270874C19.8393 0.270874 21.1875 0.839624 22.3125 1.97712C23.4375 3.11462 24 4.47782 24 6.06671C24 6.86115 23.5268 8.0799 22.5804 9.72296C21.6339 11.366 20.7054 13.0362 19.7946 14.7334C18.8839 16.4306 18.4821 17.7848 18.5893 18.7959C18.5893 18.9764 18.4911 19.0667 18.2946 19.0667C18.0982 19.0667 18 18.9764 18 18.7959C18.0714 17.7848 17.6607 16.4306 16.7679 14.7334C15.875 13.0362 14.9554 11.366 14.0089 9.72296C13.0625 8.0799 12.5893 6.86115 12.5893 6.06671C12.5893 4.47782 13.1429 3.11462 14.25 1.97712C15.3571 0.839624 16.6964 0.270874 18.2679 0.270874ZM18.2946 3.73754C17.6696 3.73754 17.1339 3.96323 16.6875 4.41462C16.2411 4.86601 16.0179 5.41671 16.0179 6.06671C16.0179 6.71671 16.2411 7.2674 16.6875 7.71879C17.1339 8.17018 17.6696 8.39587 18.2946 8.39587C18.9196 8.39587 19.4554 8.17018 19.9018 7.71879C20.3482 7.2674 20.5714 6.71671 20.5714 6.06671C20.5714 5.41671 20.3482 4.86601 19.9018 4.41462C19.4554 3.96323 18.9196 3.73754 18.2946 3.73754ZM2.30357 2.60004H12.2143C11.5 3.7556 11.1429 5.00143 11.1429 6.33754C11.1429 7.27643 11.7143 8.77504 12.8571 10.8334L0.0535714 23.7792L0 23.4V4.92921C0 4.27921 0.223214 3.72851 0.669643 3.27712C1.11607 2.82573 1.66071 2.60004 2.30357 2.60004ZM16.6071 17.4959L13.875 14.7334L14.625 13.9209C15.4821 15.3292 16.1429 16.5209 16.6071 17.4959ZM19.875 25.7292H3L11.4107 17.1709L19.875 25.7292ZM22.875 12.2959V23.4L22.8214 23.7792L18.9643 19.8792C19.0714 19.5542 19.1964 19.2202 19.3393 18.8771C19.4821 18.5341 19.6429 18.173 19.8214 17.7938C20 17.4146 20.1696 17.0716 20.3304 16.7646C20.4911 16.4577 20.7054 16.0695 20.9732 15.6C21.2411 15.1306 21.4375 14.7785 21.5625 14.5438C21.6875 14.3091 21.9107 13.9209 22.2321 13.3792L22.875 12.2959ZM5.35714 13.5959C4.75 13.5959 4.26786 13.4695 3.91071 13.2167C3.55357 12.9639 3.375 12.6209 3.375 12.1875C3.375 11.682 3.69643 11.3028 4.33929 11.05C4.69643 10.9417 5.08929 10.8875 5.51786 10.8875H5.78571C6.25 11.2487 6.57143 11.5195 6.75 11.7C6.92857 11.8806 7.01786 12.0973 7.01786 12.35C7.01786 12.675 6.85714 12.9639 6.53571 13.2167C6.21429 13.4695 5.82143 13.5959 5.35714 13.5959ZM4.01786 6.98754C4.01786 6.62643 4.11607 6.34657 4.3125 6.14796C4.50893 5.94935 4.73214 5.85004 4.98214 5.85004C5.44643 5.85004 5.8125 6.06671 6.08036 6.50004C6.34821 6.93337 6.48214 7.38476 6.48214 7.85421C6.48214 8.25143 6.36607 8.53129 6.13393 8.69379C5.90179 8.85629 5.66071 8.93754 5.41071 8.93754C5.01786 8.93754 4.6875 8.7299 4.41964 8.31462C4.15179 7.89935 4.01786 7.45698 4.01786 6.98754ZM6.80357 10.3459L6.42857 10.0209C6.21429 9.84032 6.10714 9.67782 6.10714 9.53337C6.10714 9.2806 6.23214 9.06393 6.48214 8.88337C7.08929 8.41393 7.39286 7.89032 7.39286 7.31254C7.39286 6.80698 7.14286 6.33754 6.64286 5.90421H7.28571L7.76786 5.41671H5.46429C4.71429 5.41671 4.13393 5.62435 3.72321 6.03962C3.3125 6.4549 3.10714 6.95143 3.10714 7.52921C3.10714 7.99865 3.26786 8.41393 3.58929 8.77504C3.91071 9.13615 4.35714 9.31671 4.92857 9.31671H5.19643L5.08929 9.75004C5.08929 10.0028 5.19643 10.2556 5.41071 10.5084C4.55357 10.5445 3.83929 10.7431 3.26786 11.1042C2.69643 11.4292 2.41071 11.8806 2.41071 12.4584C2.41071 12.9278 2.61607 13.316 3.02679 13.623C3.4375 13.9299 4.03571 14.0834 4.82143 14.0834C5.71429 14.0834 6.41964 13.8667 6.9375 13.4334C7.45536 13 7.71429 12.5125 7.71429 11.9709C7.71429 11.3931 7.41071 10.8514 6.80357 10.3459Z" fill="black"/>
</svg>
